<svg viewBox="0 0 24 24" fill="none" xmlns="http://www.w3.org/2000/svg"><g stroke-width="0"/><g stroke-linecap="round" stroke-linejoin="round"/><path d="M3 5v14m9-11.671v9.342c0 1.066 0 1.599-.219 1.872a1 1 0 0 1-.782.376c-.35 0-.766-.333-1.599-.999L5.123 14.5c-1.067-.854-1.601-1.281-1.794-1.797a2 2 0 0 1 0-1.404c.193-.516.727-.943 1.794-1.797L9.4 6.08c.833-.666 1.249-.999 1.599-1a1 1 0 0 1 .782.377C12 5.73 12 6.263 12 7.329m9 0v9.342c0 1.066 0 1.599-.218 1.872a1 1 0 0 1-.783.376c-.35 0-.766-.333-1.598-.999l-4.277-3.42c-1.068-.854-1.602-1.281-1.795-1.797a2 2 0 0 1 0-1.404c.193-.516.727-.943 1.794-1.797l4.278-3.421c.832-.666 1.248-.999 1.598-1a1 1 0 0 1 .783.377C21 5.73 21 6.263 21 7.329" stroke="#E8EAED" stroke-width="2" stroke-linecap="round" stroke-linejoin="round"/></svg>